<?xml version="1.0" encoding="UTF-8"?>
<svg width="176px" height="176px" viewBox="0 0 176 176" version="1.1" xmlns="http://www.w3.org/2000/svg" xmlns:xlink="http://www.w3.org/1999/xlink">
    <!-- Generator: Sketch 45.2 (43514) - http://www.bohemiancoding.com/sketch -->
    <title>Untitled</title>
    <desc>Created with Sketch.</desc>
    <defs></defs>
    <g id="Page-1" stroke="none" stroke-width="1" fill="none" fill-rule="evenodd">
        <g id="bootstrap-icon" fill-rule="nonzero" fill="#000000">
            <path d="M146.333,2.216 C153.625,2.216 160.516,5.077 165.721,10.278 C170.925,15.483 173.783,22.375 173.783,29.667 L173.783,146.333 C173.783,153.625 170.924,160.517 165.721,165.72 C160.516,170.925 153.624,173.784 146.333,173.784 L29.667,173.784 C22.375,173.784 15.484,170.925 10.28,165.72 C5.075,160.517 2.216,153.625 2.216,146.333 L2.216,29.667 C2.216,22.375 5.075,15.483 10.28,10.278 C15.485,5.077 22.376,2.216 29.667,2.216 L146.333,2.216 L146.333,2.216 Z M146.333,0.5 L29.667,0.5 C13.625,0.5 0.5,13.625 0.5,29.667 L0.5,146.333 C0.5,162.375 13.625,175.5 29.667,175.5 L146.333,175.5 C162.375,175.5 175.5,162.375 175.5,146.333 L175.5,29.667 C175.5,13.625 162.375,0.5 146.333,0.5 Z" id="Shape"></path>
            <path d="M48.053,38.533 L97.665,38.533 C106.814,38.533 114.164,40.618 119.684,44.822 C125.204,49.025 127.977,55.343 127.977,63.837 C127.977,68.984 126.719,73.389 124.204,77.049 C121.686,80.708 118.085,83.57 113.393,85.57 L113.393,85.853 C119.686,87.199 124.459,90.171 127.69,94.776 C130.921,99.409 132.551,105.184 132.551,112.163 C132.551,116.166 131.836,119.913 130.406,123.372 C128.976,126.859 126.745,129.865 123.685,132.378 C120.625,134.895 116.738,136.899 111.961,138.384 C107.187,139.872 101.523,140.615 94.948,140.615 L48.053,140.615 L48.053,38.533 Z M65.925,81.281 L95.092,81.281 C99.382,81.281 102.955,80.08 105.815,77.621 C108.675,75.162 110.104,71.673 110.104,67.096 C110.104,61.95 108.817,58.321 106.246,56.234 C103.673,54.145 99.955,53.088 95.094,53.088 L65.925,53.088 L65.925,81.281 L65.925,81.281 Z M65.925,126.033 L97.522,126.033 C102.957,126.033 107.188,124.629 110.164,121.799 C113.165,118.997 114.683,114.993 114.683,109.846 C114.683,104.785 113.195,100.925 110.164,98.179 C107.133,95.435 102.957,94.119 97.522,94.119 L65.925,94.119 L65.925,126.033 Z" id="Shape"></path>
        </g>
    </g>
</svg>