<?xml version="1.0" encoding="UTF-8"?>
<svg width="501px" height="488px" viewBox="0 0 501 488" version="1.1" xmlns="http://www.w3.org/2000/svg" xmlns:xlink="http://www.w3.org/1999/xlink">
    <!-- Generator: Sketch 45.2 (43514) - http://www.bohemiancoding.com/sketch -->
    <title>Untitled 2</title>
    <desc>Created with Sketch.</desc>
    <defs></defs>
    <g id="Page-1" stroke="none" stroke-width="1" fill="none" fill-rule="evenodd">
        <g id="adobe-illustrator-cc-seeklogo.com" fill-rule="nonzero" fill="#000000">
            <path d="M21.4,21 L479.1,21 L479.1,466.3 L21.4,466.3 L21.4,21 Z M0.6,487.1 L500,487.1 L500,0.2 L0.6,0.2 L0.6,487.1 Z M327.7,173.8 C327.7,172.1 328.3,171.3 330.2,171.3 L362.9,171.3 C364.6,171.3 365.4,171.9 365.4,173.8 L365.4,338 C365.4,339.7 365,340.5 362.9,340.5 L330.6,340.5 C328.5,340.5 327.9,339.5 327.9,337.8 L327.9,173.8 L327.7,173.8 L327.7,173.8 Z M325.4,126.5 C325.4,113.2 334.8,105.3 346.6,105.3 C359.3,105.3 367.8,113.8 367.8,126.5 C367.8,140.2 358.9,147.7 346.2,147.7 C334.2,147.8 325.4,140.3 325.4,126.5 Z M231.8,242.2 C226,219.1 212.2,168.8 207,144.4 L206.6,144.4 C202.2,168.7 191.2,209.9 182.5,242.2 L231.8,242.2 L231.8,242.2 Z M174,275.9 L157.6,338.3 C157.2,340 156.6,340.4 154.5,340.4 L123.9,340.4 C121.8,340.4 121.4,339.8 121.8,337.3 L180.9,130.5 C181.9,126.8 182.6,123.4 183,113.2 C183,111.7 183.6,111.1 184.7,111.1 L228.4,111.1 C229.9,111.1 230.5,111.5 230.9,113.2 L297.1,337.7 C297.5,339.4 297.1,340.4 295.4,340.4 L260.9,340.4 C259.2,340.4 258.2,340 257.8,338.5 L240.7,275.9 L174,275.9 L174,275.9 Z" id="Shape"></path>
        </g>
    </g>
</svg>