<?xml version="1.0" encoding="UTF-8"?>
<svg width="147px" height="145px" viewBox="0 0 147 145" version="1.1" xmlns="http://www.w3.org/2000/svg" xmlns:xlink="http://www.w3.org/1999/xlink">
    <!-- Generator: Sketch 45.2 (43514) - http://www.bohemiancoding.com/sketch -->
    <title>Untitled</title>
    <desc>Created with Sketch.</desc>
    <defs></defs>
    <g id="Page-1" stroke="none" stroke-width="1" fill="none" fill-rule="evenodd">
        <g id="jquery" fill-rule="nonzero" fill="#000000">
            <path d="M12.4,56.2 C12.4,39 18.2,23.1 27.9,10.4 C11.2,24.2 0.6,45.2 0.6,68.6 C0.6,110.3 34.4,144.1 76.1,144.1 C100.6,144.1 122.3,132.4 136.1,114.4 C123,125.2 106.2,131.8 87.9,131.8 C46.2,131.7 12.4,97.9 12.4,56.2 Z" id="Shape"></path>
            <path d="M46.6,38.7 C46.6,25.1 51.2,12.5 58.9,2.5 C45.7,13.5 37.3,30 37.3,48.5 C37.3,81.5 64,108.2 97,108.2 C116.4,108.2 133.6,99 144.5,84.7 C134.2,93.3 120.9,98.4 106.4,98.4 C73.4,98.5 46.6,71.7 46.6,38.7 Z" id="Shape"></path>
            <path d="M79.9,25.2 C79.9,15.9 83,7.4 88.2,0.5 C79.2,8 73.5,19.2 73.5,31.8 C73.5,54.3 91.7,72.5 114.2,72.5 C127.4,72.5 139.1,66.2 146.5,56.5 C139.5,62.3 130.4,65.8 120.6,65.8 C98.1,65.9 79.9,47.7 79.9,25.2 Z" id="Shape"></path>
        </g>
    </g>
</svg>