<?xml version="1.0" encoding="UTF-8"?>
<svg width="384px" height="384px" viewBox="0 0 384 384" version="1.1" xmlns="http://www.w3.org/2000/svg" xmlns:xlink="http://www.w3.org/1999/xlink">
    <!-- Generator: Sketch 45.2 (43514) - http://www.bohemiancoding.com/sketch -->
    <title>Untitled</title>
    <desc>Created with Sketch.</desc>
    <defs></defs>
    <g id="Page-1" stroke="none" stroke-width="1" fill="none" fill-rule="evenodd">
        <g id="laravel" fill-rule="nonzero" fill="#000000">
            <g id="Group">
                <path d="M240.667,312 C243.667,316.333 245.5,316 247.833,315 C250.166,314 370.167,273.5 373.833,272.167 C377.499,270.834 376.333,269.667 375.167,267.833 C374.001,265.999 334,211.667 332,208.5 C330,205.333 329,206 325.833,207 L198.625,240.1 C198.625,240.1 237.667,307.667 240.667,312 Z" id="Shape"></path>
                <path d="M384,256.673 L384,193.075 C369.688,196.889 351.587,201.709 344.441,203.61 C355.221,218.034 372.075,240.607 384,256.673 Z" id="Shape"></path>
                <path d="M344.318,125.282 C342.357,125.727 298.947,133.572 296.273,133.928 C293.599,134.284 294.49,135.8 295.56,137.315 L333.761,189.729 C333.761,189.729 380.469,178.141 383.322,177.517 C383.553,177.466 383.779,177.412 384,177.357 L384,170.417 C375.51,159.651 352.379,130.34 350.38,127.601 C347.974,124.302 346.279,124.837 344.318,125.282 Z" id="Shape"></path>
                <path d="M71.184,42.951 C80.584,42.524 81.442,44.663 85.572,50.787 L189.328,224.25 L319.788,192.997 C312.56,182.751 279.745,136.228 276.574,131.789 C273.009,126.797 276.663,124.479 282.457,123.499 C288.251,122.519 338.167,114.14 342.446,113.516 C346.725,112.892 350.113,111.377 357.065,119.756 C360.622,124.043 372.683,139.061 384,153.138 L384,72 C384,52.167 376.958,35.208 362.875,21.125 C348.792,7.042 331.833,0 312,0 L72,0 C52.167,0 35.208,7.042 21.125,21.125 C13.047,29.203 7.298,38.231 3.853,48.201 C27.37,46.269 64.605,43.25 71.184,42.951 Z" id="Shape"></path>
                <path d="M252.433,335.346 C241.432,338.679 236.499,340.333 229.333,330.333 C223.966,322.843 194.943,270.568 180.712,244.798 C153.78,251.852 104.491,264.716 90.278,268.131 C76.405,271.464 70.481,263.147 68.202,258.02 C66.604,254.425 25.934,166.739 0,110.476 L0,312 C0,331.834 7.042,348.791 21.125,362.875 C35.208,376.958 52.167,384 72,384 L312,384 C331.833,384 348.792,376.958 362.875,362.875 C376.958,348.791 384,331.834 384,312 L384,288.328 C354.539,299.104 259.845,333.1 252.433,335.346 Z" id="Shape"></path>
                <path d="M90.618,247.932 C94.517,247.04 167.587,229.552 169.147,229.218 C170.707,228.884 171.709,227.992 170.038,225.097 C168.367,222.202 72.638,56.963 72.638,56.963 C71.754,55.446 72.006,54.941 69.605,55.067 C67.464,55.18 13.298,60.013 0.757,61.061 C0.387,63.669 0.164,66.337 0.066,69.057 C12.797,95.119 85.864,245.812 86.274,247.04 C86.72,248.377 86.719,248.823 90.618,247.932 Z" id="Shape"></path>
            </g>
        </g>
    </g>
</svg>